<?xml version="1.0" encoding="utf-8"?>
<!-- Generator: Adobe Illustrator 26.3.1, SVG Export Plug-In . SVG Version: 6.00 Build 0)  -->
<svg version="1.1" id="Camada_1" xmlns="http://www.w3.org/2000/svg" xmlns:xlink="http://www.w3.org/1999/xlink" x="0px" y="0px"
	 viewBox="0 0 16 16" style="enable-background:new 0 0 16 16;" xml:space="preserve">
<style type="text/css">
	.st0{fill:#FFBB33;}
</style>
<g>
	<path class="st0" d="M8.21,4.43c0.06,0,0.12-0.01,0.18-0.02C8.77,4.3,9,3.91,8.89,3.53c0,0,0,0,0,0c-0.1-0.38-0.49-0.6-0.87-0.5
		c-0.38,0.1-0.6,0.49-0.5,0.87C7.61,4.22,7.9,4.43,8.21,4.43z M8.15,3.51c0.11-0.03,0.23,0.04,0.26,0.15
		c0.03,0.11-0.04,0.23-0.15,0.26C8.15,3.95,8.03,3.88,8,3.77C7.97,3.66,8.04,3.54,8.15,3.51z"/>
	<path class="st0" d="M10.35,3.68c0.06,0,0.12-0.01,0.18-0.02c0.18-0.05,0.34-0.17,0.43-0.33c0.09-0.16,0.12-0.36,0.07-0.54
		s-0.17-0.34-0.33-0.43c-0.16-0.09-0.36-0.12-0.54-0.07C9.98,2.33,9.83,2.45,9.73,2.61C9.64,2.78,9.61,2.97,9.66,3.15
		C9.75,3.47,10.03,3.68,10.35,3.68z M10.16,2.86c0.03-0.05,0.07-0.08,0.13-0.1c0.11-0.03,0.23,0.04,0.26,0.15
		c0.01,0.05,0.01,0.11-0.02,0.16c-0.03,0.05-0.07,0.08-0.13,0.1c-0.05,0.01-0.11,0.01-0.16-0.02c-0.05-0.03-0.08-0.07-0.1-0.13
		C10.13,2.97,10.14,2.91,10.16,2.86z"/>
	<path class="st0" d="M14.39,3.08C14.39,3.08,14.39,3.08,14.39,3.08L14.39,3.08C14.31,2.97,12.51,0.43,8,0.43
		c-0.67,0-1.27,0.06-1.82,0.15C5.86,0.23,5.4,0,4.89,0c-0.94,0-1.7,0.76-1.71,1.69C2.13,2.35,1.65,3.02,1.61,3.08l0,0c0,0,0,0,0,0
		c-0.09,0.14-0.1,0.31-0.03,0.46l6.01,12.2C7.66,15.89,7.8,15.99,7.97,16c0.01,0,0.02,0,0.03,0c0.15,0,0.3-0.08,0.38-0.2
		c0.37-0.55,0.73-1.26,1.02-2.07l5.01-10.19C14.49,3.39,14.48,3.22,14.39,3.08z M8.31,1.95c0-0.02,0.01-0.03,0.01-0.05
		c0-0.01,0.01-0.02,0.01-0.03c0-0.01,0-0.01,0.01-0.02c0.01-0.01,0.02-0.02,0.02-0.03c0.01-0.01,0.01-0.02,0.02-0.02
		C8.4,1.8,8.41,1.79,8.42,1.78c0.01,0,0.02-0.01,0.03-0.01c0.01,0,0.01-0.01,0.02-0.01c0.02,0,0.04-0.01,0.05-0.01
		c0.03,0,0.05,0.01,0.08,0.02c0,0,0.01,0,0.01,0c0.01,0,0.01,0,0.02,0.01C8.64,1.78,8.65,1.79,8.66,1.8
		c0.01,0.01,0.02,0.01,0.02,0.02C8.69,1.83,8.7,1.85,8.71,1.86c0.01,0.01,0.01,0.02,0.01,0.03c0,0.01,0.01,0.01,0.01,0.02
		c0,0.01,0,0.02,0,0.04c0,0.01,0,0.01,0,0.02c0,0,0,0.01,0,0.01c0,0.02-0.01,0.03-0.01,0.05c0,0.01-0.01,0.02-0.01,0.03
		c0,0.01,0,0.01-0.01,0.02C8.7,2.08,8.69,2.09,8.68,2.09C8.68,2.1,8.67,2.11,8.66,2.12C8.65,2.13,8.64,2.14,8.62,2.15
		c-0.01,0-0.02,0.01-0.03,0.01c-0.01,0-0.01,0.01-0.02,0.01c-0.01,0-0.02,0-0.04,0c-0.01,0-0.01,0-0.02,0c0,0-0.01,0-0.01,0
		c-0.02,0-0.03-0.01-0.05-0.01c-0.01,0-0.02-0.01-0.03-0.01c-0.01,0-0.01,0-0.02-0.01C8.41,2.14,8.4,2.13,8.39,2.12
		C8.38,2.12,8.38,2.11,8.37,2.1C8.36,2.09,8.35,2.08,8.34,2.06C8.34,2.05,8.33,2.04,8.33,2.03c0-0.01-0.01-0.01-0.01-0.02l0,0
		c0,0,0,0,0,0l0,0c0-0.01,0-0.02,0-0.04c0-0.01,0-0.01,0-0.02C8.31,1.96,8.31,1.96,8.31,1.95z M6.6,1.71c0-0.09-0.01-0.18-0.02-0.26
		C7.02,1.39,7.49,1.36,8,1.36c0.05,0,0.1,0,0.16,0C8.06,1.42,7.97,1.5,7.91,1.61C7.81,1.77,7.79,1.96,7.84,2.15
		C7.89,2.33,8,2.48,8.17,2.58c0.11,0.06,0.23,0.1,0.35,0.1c0.06,0,0.12-0.01,0.18-0.02C8.89,2.6,9.04,2.48,9.14,2.32
		c0.09-0.16,0.12-0.36,0.07-0.54c0,0,0,0,0,0C9.17,1.62,9.08,1.49,8.95,1.4c2.13,0.2,3.43,1.02,4.1,1.6C11.83,3.22,9.63,3.8,8,5.32
		C6.95,4.34,5.67,3.75,4.55,3.39c0.11,0.02,0.22,0.03,0.34,0.03C5.84,3.43,6.6,2.66,6.6,1.71z M4.49,1.04
		C4.47,1.05,4.46,1.06,4.44,1.06c0.1-0.07,0.22-0.11,0.35-0.13c-0.01,0-0.02,0.01-0.04,0.01C4.8,0.94,4.85,0.93,4.89,0.93
		c0.41,0,0.74,0.31,0.78,0.7c0,0,0,0,0.01,0c0,0.03,0.01,0.05,0.01,0.08c0,0.38-0.27,0.7-0.63,0.78C5,2.5,4.95,2.51,4.89,2.51
		c-0.05,0-0.1-0.01-0.14-0.01c-0.01,0-0.02,0-0.03-0.01C4.67,2.48,4.63,2.46,4.59,2.45c-0.01,0-0.01,0-0.02-0.01
		C4.53,2.42,4.49,2.4,4.46,2.38c0,0-0.01,0-0.01-0.01C4.41,2.34,4.37,2.31,4.34,2.28c0,0,0,0,0,0C4.3,2.24,4.26,2.2,4.23,2.16
		c0,0,0,0,0,0C4.15,2.03,4.1,1.88,4.1,1.72C4.1,1.43,4.26,1.18,4.49,1.04z M3.44,2.62c0.19,0.3,0.47,0.55,0.81,0.68
		C3.76,3.16,3.31,3.06,2.95,3C3.08,2.88,3.25,2.75,3.44,2.62z M8.56,13.36L8,14.5L2.79,3.91c1.29,0.23,3.79,0.91,5.2,2.77
		C9.46,8.6,9.29,11.28,8.56,13.36z M10.04,10.35C10.05,8.89,9.7,7.4,8.73,6.12C8.7,6.08,8.66,6.04,8.63,6
		c1.44-1.35,3.46-1.88,4.58-2.08L10.04,10.35z"/>
</g>
</svg>
