<?xml version="1.0" encoding="utf-8"?>
<!-- Generator: Adobe Illustrator 26.3.1, SVG Export Plug-In . SVG Version: 6.00 Build 0)  -->
<svg version="1.1" id="Camada_3" xmlns="http://www.w3.org/2000/svg" xmlns:xlink="http://www.w3.org/1999/xlink" x="0px" y="0px"
	 viewBox="0 0 100 100" style="enable-background:new 0 0 100 100;" xml:space="preserve">
<style type="text/css">
	.st0{display:none;}
	.st1{display:inline;fill:none;stroke:#4BFF98;stroke-width:4;stroke-linejoin:round;stroke-miterlimit:10;}
	.st2{fill:#FFBB33;}
	.st3{display:inline;fill:none;stroke:#FFBB33;stroke-width:0.75;stroke-miterlimit:10;}
	.st4{display:inline;fill:none;stroke:#FFBB33;stroke-width:0.75;stroke-linecap:round;stroke-miterlimit:10;}
	.st5{display:inline;fill:#FFBB33;}
	.st6{fill:none;stroke:#FFBB33;stroke-width:3;stroke-linecap:round;stroke-miterlimit:10;}
	.st7{fill:none;stroke:#FFBB33;stroke-width:3;stroke-miterlimit:10;}
	.st8{fill:none;stroke:#FFBB33;stroke-width:5;stroke-linejoin:round;stroke-miterlimit:10;}
	.st9{fill:none;stroke:#FFBB33;stroke-width:5;stroke-miterlimit:10;}
	.st10{fill:#FFFFFF;stroke:#FFBB33;stroke-width:5;stroke-linejoin:round;stroke-miterlimit:10;}
	.st11{fill:none;stroke:#FFBB33;stroke-width:2;stroke-miterlimit:10;}
</style>
<g class="st0">
	<ellipse class="st1" cx="50" cy="13.38" rx="25.26" ry="7.4"/>
	<path class="st1" d="M50,93.85c-13.95,0-25.26-3.31-25.26-7.4v-8.16c0-3.23,1.12-6.36,3.16-8.85l15.3-17.5
		c1.01-1.16,1.01-2.89,0-4.05l-15.3-17.5c-2.05-2.5-3.16-5.63-3.16-8.85v-8.16"/>
	<path class="st1" d="M50,93.85c13.95,0,25.26-3.31,25.26-7.4v-8.16c0-3.23-1.12-6.36-3.16-8.85l-15.3-17.5
		c-1.01-1.16-1.01-2.89,0-4.05l15.3-17.5c2.05-2.5,3.16-5.63,3.16-8.85v-8.16"/>
</g>
<g>
	<g>
		<g>
			<path class="st2" d="M50,22.79c-13.13,0-27.26-2.94-27.26-9.4S36.87,3.98,50,3.98s27.25,2.94,27.25,9.4S63.13,22.79,50,22.79z
				 M50,7.98c-15.34,0-23.26,3.79-23.26,5.4s7.91,5.4,23.26,5.4c15.34,0,23.25-3.79,23.25-5.4S65.34,7.98,50,7.98z"/>
		</g>
		<g>
			<path class="st2" d="M50,95.85c-13.13,0-27.26-2.94-27.26-9.4v-8.16c0-3.68,1.28-7.27,3.62-10.12L41.7,50.62
				c0.35-0.4,0.35-1.01,0-1.42l-15.3-17.5c-2.37-2.9-3.66-6.49-3.66-10.17v-8.16h4v8.16c0,2.76,0.96,5.45,2.71,7.59l15.26,17.45
				c1.67,1.9,1.67,4.78,0,6.68l-15.3,17.5c-1.71,2.08-2.67,4.78-2.67,7.54v8.16c0,1.62,7.91,5.4,23.26,5.4V95.85z"/>
		</g>
		<g>
			<path class="st2" d="M50,95.85v-4c15.34,0,23.25-3.79,23.25-5.4v-8.16c0-2.76-0.96-5.45-2.71-7.59L55.29,53.25
				c-1.67-1.9-1.67-4.78,0-6.68l15.3-17.5c1.71-2.08,2.67-4.78,2.67-7.54v-8.16h4v8.16c0,3.68-1.28,7.27-3.61,10.12L58.3,49.21
				c-0.35,0.4-0.35,1.01,0,1.42l15.3,17.5c2.37,2.9,3.66,6.49,3.66,10.17v8.16C77.25,92.91,63.13,95.85,50,95.85z"/>
		</g>
	</g>
	<path class="st2" d="M50,32.99c-8.48,0-17.04-5-17.04-5L45.51,42.3c0,0,3.52,3.69,3.76,10.59h0v0c0,0.41,0.33,0.73,0.73,0.73
		s0.73-0.33,0.73-0.73v0h0c0.24-6.89,3.76-10.59,3.76-10.59l12.54-14.31C67.04,27.98,58.48,32.99,50,32.99z"/>
	<path class="st2" d="M63.02,77.29c-5.8-2.01-9.86-4.26-11.77-6.67c-0.65-0.82-1.84-0.82-2.49,0c-1.91,2.41-5.97,4.66-11.77,6.67
		c-5.51,1.91-6.8,4.43-7.05,5.91c-0.12,0.7,0.26,1.39,0.91,1.69c2.04,0.94,7.76,2.98,19.16,2.98s17.12-2.04,19.16-2.98
		c0.65-0.3,1.03-0.99,0.91-1.69C69.82,81.73,68.52,79.2,63.02,77.29z"/>
</g>
</svg>
