<?xml version="1.0" encoding="utf-8"?>
<!-- Generator: Adobe Illustrator 26.3.1, SVG Export Plug-In . SVG Version: 6.00 Build 0)  -->
<svg version="1.1" id="Camada_3" xmlns="http://www.w3.org/2000/svg" xmlns:xlink="http://www.w3.org/1999/xlink" x="0px" y="0px"
	 viewBox="0 0 100 100" style="enable-background:new 0 0 100 100;" xml:space="preserve">
<style type="text/css">
	.st0{display:none;}
	.st1{display:inline;fill:none;stroke:#4BFF98;stroke-width:4;stroke-linejoin:round;stroke-miterlimit:10;}
	.st2{fill:#FFBB33;}
	.st3{display:inline;fill:none;stroke:#FFBB33;stroke-width:0.75;stroke-miterlimit:10;}
	.st4{display:inline;fill:none;stroke:#FFBB33;stroke-width:0.75;stroke-linecap:round;stroke-miterlimit:10;}
	.st5{display:inline;fill:#FFBB33;}
	.st6{fill:none;stroke:#FFBB33;stroke-width:3;stroke-linecap:round;stroke-miterlimit:10;}
	.st7{fill:none;stroke:#FFBB33;stroke-width:3;stroke-miterlimit:10;}
	.st8{fill:none;stroke:#FFBB33;stroke-width:5;stroke-linejoin:round;stroke-miterlimit:10;}
	.st9{fill:none;stroke:#FFBB33;stroke-width:5;stroke-miterlimit:10;}
	.st10{fill:#FFFFFF;stroke:#FFBB33;stroke-width:5;stroke-linejoin:round;stroke-miterlimit:10;}
	.st11{fill:none;stroke:#FFBB33;stroke-width:2;stroke-miterlimit:10;}
</style>
<g>
	<g>
		<path class="st6" d="M50.12,94.01c0,0-17.46-20.01-17.46-41.33"/>
		<path class="st6" d="M44.1,71.85c0,0-7.58-5.18-11.26-14.94"/>
	</g>
	<g>
		<path class="st6" d="M52.36,73.02c0,0,18.08-5.83,18.08-25.55"/>
		<path class="st6" d="M65.13,64.01c0,0-0.92,7.37,4.33,12.62"/>
	</g>
	<path class="st2" d="M70.09,52.68c0.82,0,1.54-0.57,1.73-1.36C77.71,26.35,71.21,5.99,50,5.99c-21.6,0-23.89,17.06-23.89,27.45
		c0,8.16,2.36,15.38,3.38,18.1c0.26,0.69,0.92,1.15,1.66,1.15h4.25c1.49,0,2.3-1.71,1.38-2.88c-7.78-9.93-5.86-16.14-5.86-16.14
		s1.09-4.32,19.07-4.32c11.02,0,15.29,1.46,16.95,2.59c0.67,0.46,1.05,1.23,1.05,2.05v6.14c0,3.75-1.59,7.54-2.86,9.96
		c-0.62,1.19,0.22,2.61,1.57,2.61H70.09z"/>
	<path class="st2" d="M34.38,39.58c-0.48-0.23-0.46-0.93,0.03-1.13c1.05-0.43,2.82-0.97,5.15-0.97c2.33,0,3.76,0.82,4.53,1.47
		c0.38,0.32,0.24,0.94-0.25,1.06C41.97,40.48,37.77,41.23,34.38,39.58z"/>
	<path class="st2" d="M65.61,39.58c0.48-0.23,0.46-0.93-0.03-1.13c-1.05-0.43-2.82-0.97-5.15-0.97c-2.33,0-3.76,0.82-4.53,1.47
		c-0.38,0.32-0.24,0.94,0.25,1.06C58.02,40.48,62.22,41.23,65.61,39.58z"/>
	<path class="st2" d="M47.25,59.36c-0.15-0.15-0.17-0.38-0.03-0.55c0.31-0.39,1.07-1.02,2.97-1.02c1.86,0,2.81,0.61,3.23,1
		c0.17,0.16,0.16,0.42,0,0.59l-2.78,2.79c-0.16,0.16-0.43,0.16-0.59,0L47.25,59.36z"/>
	<line class="st11" x1="50.33" y1="51.42" x2="50.33" y2="53.66"/>
	<g>
		<line class="st11" x1="35.69" y1="42.18" x2="35.69" y2="44.42"/>
		<line class="st11" x1="41.39" y1="42.18" x2="41.39" y2="44.42"/>
		<line class="st11" x1="38.55" y1="42.18" x2="38.55" y2="46.61"/>
	</g>
	<g>
		<line class="st11" x1="57.97" y1="42.18" x2="57.97" y2="44.42"/>
		<line class="st11" x1="63.67" y1="42.18" x2="63.67" y2="44.42"/>
		<line class="st11" x1="60.83" y1="42.18" x2="60.83" y2="46.61"/>
	</g>
</g>
</svg>
