<svg xmlns="http://www.w3.org/2000/svg" viewBox="0 0 100 100" xmlns:v="https://vecta.io/nano"><g fill="none" stroke="#fb3" stroke-width="3" stroke-linecap="round" stroke-miterlimit="10"><path d="M50.12 94.01S32.66 74 32.66 52.68"/><path d="M44.1 71.85s-7.58-5.18-11.26-14.94m19.52 16.11s18.08-5.83 18.08-25.55m-5.31 16.54s-.92 7.37 4.33 12.62"/></g><path d="M70.09 52.68c.82 0 1.54-.57 1.73-1.36C77.71 26.35 71.21 5.99 50 5.99c-21.6 0-23.89 17.06-23.89 27.45 0 8.16 2.36 15.38 3.38 18.1.26.69.92 1.15 1.66 1.15h4.25c1.49 0 2.3-1.71 1.38-2.88-7.78-9.93-5.86-16.14-5.86-16.14s1.09-4.32 19.07-4.32c11.02 0 15.29 1.46 16.95 2.59.67.46 1.05 1.23 1.05 2.05v6.14c0 3.75-1.59 7.54-2.86 9.96-.62 1.19.22 2.61 1.57 2.61h3.39zm-35.71-13.1c-.48-.23-.46-.93.03-1.13 1.05-.43 2.82-.97 5.15-.97s3.76.82 4.53 1.47a.61.61 0 0 1-.25 1.06c-1.87.47-6.07 1.22-9.46-.43zm31.23 0c.48-.23.46-.93-.03-1.13-1.05-.43-2.82-.97-5.15-.97s-3.76.82-4.53 1.47a.61.61 0 0 0 .25 1.06c1.87.47 6.07 1.22 9.46-.43zM47.25 59.36c-.15-.15-.17-.38-.03-.55.31-.39 1.07-1.02 2.97-1.02 1.86 0 2.81.61 3.23 1 .17.16.16.42 0 .59l-2.78 2.79c-.16.16-.43.16-.59 0l-2.8-2.81z" fill="#fb3"/><path d="M50.33 51.42v2.24M35.69 42.18v2.24m5.7-2.24v2.24m-2.84-2.24v4.43m19.42-4.43v2.24m5.7-2.24v2.24m-2.84-2.24v4.43" fill="none" stroke="#fb3" stroke-miterlimit="10" stroke-width="2"/></svg>