<svg xmlns="http://www.w3.org/2000/svg" viewBox="0 0 100 100" fill="#fb3" xmlns:v="https://vecta.io/nano"><path d="M50 22.79c-13.13 0-27.26-2.94-27.26-9.4S36.87 3.98 50 3.98s27.25 2.94 27.25 9.4S63.13 22.79 50 22.79zm0-14.81c-15.34 0-23.26 3.79-23.26 5.4s7.91 5.4 23.26 5.4c15.34 0 23.25-3.79 23.25-5.4S65.34 7.98 50 7.98z"/><path d="M50 95.85c-13.13 0-27.26-2.94-27.26-9.4v-8.16c0-3.68 1.28-7.27 3.62-10.12L41.7 50.62c.35-.4.35-1.01 0-1.42L26.4 31.7c-2.37-2.9-3.66-6.49-3.66-10.17v-8.16h4v8.16a12.01 12.01 0 0 0 2.71 7.59l15.26 17.45a5.08 5.08 0 0 1 0 6.68l-15.3 17.5c-1.71 2.08-2.67 4.78-2.67 7.54v8.16c0 1.62 7.91 5.4 23.26 5.4v4z"/><path d="M50 95.85v-4c15.34 0 23.25-3.79 23.25-5.4v-8.16a12.01 12.01 0 0 0-2.71-7.59L55.29 53.25a5.08 5.08 0 0 1 0-6.68l15.3-17.5c1.71-2.08 2.67-4.78 2.67-7.54v-8.16h4v8.16c0 3.68-1.28 7.27-3.61 10.12L58.3 49.21c-.35.4-.35 1.01 0 1.42l15.3 17.5c2.37 2.9 3.66 6.49 3.66 10.17v8.16c-.01 6.45-14.13 9.39-27.26 9.39zm0-62.86c-8.48 0-17.04-5-17.04-5L45.51 42.3s3.52 3.69 3.76 10.59h0 0c0 .41.33.73.73.73s.73-.33.73-.73h0 0c.24-6.89 3.76-10.59 3.76-10.59l12.54-14.31c.01-.01-8.55 5-17.03 5zm13.02 44.3c-5.8-2.01-9.86-4.26-11.77-6.67-.65-.82-1.84-.82-2.49 0-1.91 2.41-5.97 4.66-11.77 6.67-5.51 1.91-6.8 4.43-7.05 5.91-.12.7.26 1.39.91 1.69 2.04.94 7.76 2.98 19.16 2.98s17.12-2.04 19.16-2.98c.65-.3 1.03-.99.91-1.69-.26-1.47-1.56-4-7.06-5.91z"/></svg>