<?xml version="1.0" encoding="utf-8"?>
<!-- Generator: Adobe Illustrator 26.3.1, SVG Export Plug-In . SVG Version: 6.00 Build 0)  -->
<svg version="1.1" id="Camada_3" xmlns="http://www.w3.org/2000/svg" xmlns:xlink="http://www.w3.org/1999/xlink" x="0px" y="0px"
	 viewBox="0 0 100 100" style="enable-background:new 0 0 100 100;" xml:space="preserve">
<style type="text/css">
	.st0{display:none;}
	.st1{display:inline;fill:none;stroke:#4BFF98;stroke-width:4;stroke-linejoin:round;stroke-miterlimit:10;}
	.st2{fill:#FFBB33;}
	.st3{display:inline;fill:none;stroke:#FFBB33;stroke-width:0.75;stroke-miterlimit:10;}
	.st4{display:inline;fill:none;stroke:#FFBB33;stroke-width:0.75;stroke-linecap:round;stroke-miterlimit:10;}
	.st5{display:inline;fill:#FFBB33;}
	.st6{fill:none;stroke:#FFBB33;stroke-width:3;stroke-linecap:round;stroke-miterlimit:10;}
	.st7{fill:none;stroke:#FFBB33;stroke-width:3;stroke-miterlimit:10;}
	.st8{fill:none;stroke:#FFBB33;stroke-width:5;stroke-linejoin:round;stroke-miterlimit:10;}
	.st9{fill:none;stroke:#FFBB33;stroke-width:5;stroke-miterlimit:10;}
	.st10{fill:#FFFFFF;stroke:#FFBB33;stroke-width:5;stroke-linejoin:round;stroke-miterlimit:10;}
	.st11{fill:none;stroke:#FFBB33;stroke-width:2;stroke-miterlimit:10;}
</style>
<g class="st0">
	<path class="st3" d="M31.16,88.73l3.18-2.44c0,0,0.33-2.12,1.07-6.08c0.47-2.54,1.53-3.48,1.53-3.48s4.98,6.47,10.91,8.38"/>
	<path class="st3" d="M39.15,84.98c0,0-2.4,1.5-5.69,1.98"/>
	<path class="st3" d="M48.11,90.71c0,0-1.96,2.01-6.6,2.55c-1.25,0.15-2.35-0.85-2.35-2.11v-6.01c0-1.17,0.95-2.12,2.12-2.12h2.46"
		/>
	<path class="st3" d="M37.31,77.2c-0.09-0.11,0.09-6.47-0.19-8.93"/>
	<path class="st3" d="M50,73.73c0,0-1.3,0.12-3.33,0.26c-2.03,0.14-3.9-1.03-4.88-2.15c-0.98-1.12-5.62-2.6-6.96-7.66
		c-1.34-5.06-1.8-6.46-2.16-12.26s-1.24-9.86-1.68-12.78s0-9.67,0-9.67s0.14-8.49,4.64-13.56s7.44-7.18,11.36-7.18
		s8.07,2.11,8.07,2.11s5.07-1.44,8.87,3s4.56,11.11,5.07,15.64c0,0,0.43,6.75,0,9.67c-0.43,2.92-1.32,6.99-1.68,12.78
		c-0.36,5.79-0.82,7.2-2.16,12.26s-5.98,6.53-6.96,7.66c-0.98,1.12-2.85,2.3-4.88,2.15C51.3,73.85,50,73.73,50,73.73"/>
	<path class="st3" d="M32.67,51.92c0,0-1.17,0.6-1.73-1.92c-0.56-2.52-2.15-6.52-2.38-8.82c-0.22-2.3-0.4-3.69,0.7-3.69
		c1.1,0,1.63,0.68,1.63,0.68"/>
	<path class="st4" d="M42.55,87.3c0,0,2.15-0.38,4.87,0"/>
	<line class="st4" x1="44.47" y1="88.73" x2="47.42" y2="88.73"/>
	<path class="st3" d="M51.29,84.98H50h-1.29c-0.71,0-1.29,0.58-1.29,1.29v3.31c0,0.71,0.58,1.29,1.29,1.29H50h1.29
		c0.71,0,1.29-0.58,1.29-1.29v-3.31C52.58,85.55,52,84.98,51.29,84.98z"/>
	<path class="st3" d="M68.84,88.73l-3.18-2.44c0,0-0.33-2.12-1.07-6.08c-0.47-2.54-1.53-3.48-1.53-3.48s-4.98,6.47-10.91,8.38"/>
	<path class="st3" d="M60.85,84.98c0,0,2.4,1.5,5.69,1.98"/>
	<path class="st3" d="M51.89,90.71c0,0,1.96,2.01,6.6,2.55c1.25,0.15,2.35-0.85,2.35-2.11v-6.01c0-1.17-0.95-2.12-2.12-2.12h-2.46"
		/>
	<path class="st3" d="M62.69,77.2c0.09-0.11-0.09-6.47,0.19-8.93"/>
	<path class="st3" d="M67.33,51.92c0,0,1.17,0.6,1.73-1.92s2.15-6.52,2.38-8.82s0.4-3.69-0.7-3.69c-1.1,0-1.63,0.68-1.63,0.68"/>
	<path class="st4" d="M57.45,87.3c0,0-2.15-0.38-4.87,0"/>
	<line class="st4" x1="55.53" y1="88.73" x2="52.58" y2="88.73"/>
	<path class="st4" d="M43.67,60.25c0,0,3.64-0.46,6.4-0.46"/>
	<path class="st4" d="M46.6,62.79c0,0,1.25,0.29,3.4,0.29"/>
	<path class="st5" d="M57.37,57.51c-2.11,0-2.49-3.21-4.98-3.21c-2.26,0-2.38,0.91-2.39,1.09c0-0.17-0.13-1.09-2.39-1.09
		c-2.49,0-2.87,3.21-4.98,3.21s-2.36-0.8-2.36-0.8s0.37,1.79,3.06,1.79c2.7,0,3.8-1.61,5.23-1.61S50,57.34,50,57.34
		s0-0.45,1.43-0.45s2.54,1.61,5.23,1.61c2.7,0,3.06-1.79,3.06-1.79S59.47,57.51,57.37,57.51z"/>
	<path class="st4" d="M56.33,60.25c0,0-3.64-0.46-6.4-0.46"/>
	<path class="st4" d="M53.4,62.79c0,0-1.25,0.29-3.4,0.29"/>
	<path class="st4" d="M30.8,32.27c0,0,0.74-1.12,1.65-1.7"/>
	<path class="st4" d="M30.99,29.47c0,0,2.85-3.06,7.42-3.06"/>
	<path class="st4" d="M31.26,26.62c0,0,5.24-4.84,16.3-2.54"/>
	<path class="st4" d="M32.15,22.55c0,0,0.76-2.94,7.75-2.94s9.43,1.47,9.43,1.47"/>
	<path class="st4" d="M34.48,17.4c0,0,4.12-1.28,10.58,0.42s7.35,2.8,7.35,2.8"/>
	<path class="st4" d="M37.2,14.18c0,0,5.71-0.35,10.26,1.38s7.73,4.84,7.73,4.84"/>
	<path class="st4" d="M41.63,10.34c0,0,3.41-0.38,7.79,2.35s6.87,4.98,6.87,7.71"/>
	<path class="st4" d="M48.51,10.73c0,0,5.41,0.79,7.78,5.72"/>
	<path class="st4" d="M57.39,17.91c0,0,1.82-1.46,4.6-1.46c2.78,0,4.54,1.67,4.54,1.67"/>
	<path class="st4" d="M57.39,19.61c0,0,1.6-0.62,4.57-0.62c2.97,0,5.56,1.97,5.56,1.97"/>
	<path class="st4" d="M57.66,21.21h5.1c0,0,1.99-0.31,5.38,2.25"/>
	<path class="st4" d="M60.34,24.23h4.21c0,0,1.85-0.14,4.11,2.39"/>
	<line class="st4" x1="65.51" y1="28.18" x2="68.86" y2="28.18"/>
	<path class="st4" d="M67.4,32.65c0,0,1.29-0.84,1.7-1.46"/>
</g>
<g>
	<path class="st6" d="M55.06,10.83c0,0,2.35,1.31,3.05,2.89c0,0,1.17-1.52,3.58-1.82"/>
	<path class="st7" d="M31.16,88.73l3.18-2.44c0,0,0.33-2.12,1.07-6.08c0.47-2.54,1.53-3.48,1.53-3.48s4.98,6.47,10.91,8.38"/>
	<path class="st7" d="M39.15,84.98c0,0-2.4,1.5-5.69,1.98"/>
	<path class="st7" d="M48.11,90.71c0,0-1.96,2.01-6.6,2.55c-1.25,0.15-2.35-0.85-2.35-2.11v-6.01c0-1.17,0.95-2.12,2.12-2.12h2.46"
		/>
	<path class="st7" d="M37.31,77.2c-0.09-0.11,0.09-6.47-0.19-8.93"/>
	<path class="st7" d="M51.57,73.86c-1.05-0.08-2.1-0.08-3.15,0c-0.49,0.04-1.08,0.08-1.76,0.13c-2.03,0.14-3.9-1.03-4.88-2.15
		c-0.98-1.12-5.62-2.6-6.96-7.66c-1.34-5.06-1.8-6.46-2.16-12.26s-1.24-9.86-1.68-12.78s0-9.67,0-9.67s0.14-8.49,4.64-13.56
		s7.44-7.18,11.36-7.18s8.07,2.11,8.07,2.11s5.07-1.44,8.87,3s4.56,11.11,5.07,15.64c0,0,0.43,6.75,0,9.67
		c-0.43,2.92-1.32,6.99-1.68,12.78c-0.36,5.79-0.82,7.2-2.16,12.26s-5.98,6.53-6.96,7.66c-0.98,1.12-2.85,2.3-4.88,2.15
		C52.66,73.94,52.06,73.9,51.57,73.86z"/>
	<path class="st7" d="M32.67,51.92c0,0-1.17,0.6-1.73-1.92c-0.56-2.52-2.15-6.52-2.38-8.82c-0.22-2.3-0.4-3.69,0.7-3.69
		c1.1,0,1.63,0.68,1.63,0.68"/>
	<path class="st6" d="M42.55,87.3c0,0,2.15-0.38,4.87,0"/>
	<line class="st6" x1="44.47" y1="88.73" x2="47.42" y2="88.73"/>
	<path class="st7" d="M51.29,84.98H50h-1.29c-0.71,0-1.29,0.58-1.29,1.29v3.31c0,0.71,0.58,1.29,1.29,1.29H50h1.29
		c0.71,0,1.29-0.58,1.29-1.29v-3.31C52.58,85.55,52,84.98,51.29,84.98z"/>
	<path class="st7" d="M68.84,88.73l-3.18-2.44c0,0-0.33-2.12-1.07-6.08c-0.47-2.54-1.53-3.48-1.53-3.48s-4.98,6.47-10.91,8.38"/>
	<path class="st7" d="M60.85,84.98c0,0,2.4,1.5,5.69,1.98"/>
	<path class="st7" d="M51.89,90.71c0,0,1.96,2.01,6.6,2.55c1.25,0.15,2.35-0.85,2.35-2.11v-6.01c0-1.17-0.95-2.12-2.12-2.12h-2.46"
		/>
	<path class="st7" d="M62.69,77.2c0.09-0.11-0.09-6.47,0.19-8.93"/>
	<path class="st7" d="M67.33,51.92c0,0,1.17,0.6,1.73-1.92s2.15-6.52,2.38-8.82s0.4-3.69-0.7-3.69c-1.1,0-1.63,0.68-1.63,0.68"/>
	<path class="st6" d="M57.45,87.3c0,0-2.15-0.38-4.87,0"/>
	<line class="st6" x1="55.53" y1="88.73" x2="52.58" y2="88.73"/>
	<path class="st6" d="M43.67,60.25c0,0,3.64-0.46,6.4-0.46"/>
	<path class="st6" d="M46.6,62.79c0,0,1.25,0.29,3.4,0.29"/>
	<path class="st2" d="M57.37,57.51c-2.11,0-2.49-3.21-4.98-3.21c-2.26,0-2.38,0.91-2.39,1.09c0-0.17-0.13-1.09-2.39-1.09
		c-2.49,0-2.87,3.21-4.98,3.21s-2.36-0.8-2.36-0.8s0.37,1.79,3.06,1.79c2.7,0,3.8-1.61,5.23-1.61S50,57.34,50,57.34
		s0-0.45,1.43-0.45s2.54,1.61,5.23,1.61c2.7,0,3.06-1.79,3.06-1.79S59.47,57.51,57.37,57.51z"/>
	<path class="st6" d="M56.33,60.25c0,0-3.64-0.46-6.4-0.46"/>
	<path class="st6" d="M53.4,62.79c0,0-1.25,0.29-3.4,0.29"/>
	<path class="st6" d="M30.8,32.27c0,0,0.74-1.12,1.65-1.7"/>
	<path class="st6" d="M31.26,26.62c0,0,5.24-4.84,16.3-2.54"/>
	<path class="st6" d="M32.15,22.55c0,0,0.76-2.94,7.75-2.94s9.43,1.47,9.43,1.47"/>
	<path class="st6" d="M37.2,14.18c0,0,5.71-0.35,10.26,1.38s7.73,4.84,7.73,4.84"/>
	<path class="st6" d="M41.63,10.34c0,0,3.41-0.38,7.79,2.35s6.87,4.98,6.87,7.71"/>
	<path class="st6" d="M57.39,17.91c0,0,1.82-1.46,4.6-1.46c2.78,0,4.54,1.67,4.54,1.67"/>
	<path class="st6" d="M57.66,21.21h5.1c0,0,1.99-0.31,5.38,2.25"/>
	<line class="st6" x1="65.51" y1="28.18" x2="68.86" y2="28.18"/>
	<path class="st6" d="M67.4,32.65c0,0,1.29-0.84,1.7-1.46"/>
</g>
</svg>
