<?xml version="1.0" encoding="utf-8"?>
<!-- Generator: Adobe Illustrator 26.4.1, SVG Export Plug-In . SVG Version: 6.00 Build 0)  -->
<svg version="1.1" id="Camada_3" xmlns="http://www.w3.org/2000/svg" xmlns:xlink="http://www.w3.org/1999/xlink" x="0px" y="0px"
	 viewBox="0 0 100 100" style="enable-background:new 0 0 100 100;" xml:space="preserve">
<style type="text/css">
	.st0{display:none;}
	.st1{display:inline;fill:none;stroke:#4BFF98;stroke-width:4;stroke-linejoin:round;stroke-miterlimit:10;}
	.st2{fill:#FFBB33;}
	.st3{display:inline;fill:none;stroke:#FFBB33;stroke-width:0.75;stroke-miterlimit:10;}
	.st4{display:inline;fill:none;stroke:#FFBB33;stroke-width:0.75;stroke-linecap:round;stroke-miterlimit:10;}
	.st5{display:inline;fill:#FFBB33;}
	.st6{fill:none;stroke:#FFBB33;stroke-width:3;stroke-linecap:round;stroke-miterlimit:10;}
	.st7{fill:none;stroke:#FFBB33;stroke-width:3;stroke-miterlimit:10;}
	.st8{fill:none;stroke:#FFBB33;stroke-width:4;stroke-linejoin:round;stroke-miterlimit:10;}
	.st9{fill:none;stroke:#FFBB33;stroke-width:4;stroke-miterlimit:10;}
	.st10{fill:#FFFFFF;stroke:#FFBB33;stroke-width:4;stroke-linejoin:round;stroke-miterlimit:10;}
	.st11{fill:none;stroke:#FFBB33;stroke-width:2;stroke-miterlimit:10;}
	.st12{fill:none;stroke:#000000;stroke-width:2;stroke-miterlimit:10;}
</style>
<g>
	<path class="st6" d="M3.79,77.86c0,0,10.75,8.68,46.26,8.68s46.16-8.68,46.16-8.68"/>
	<path class="st6" d="M77.41,75.88c0,0-7.1-19.85-21.3-19.85c-2.1,0-4.15,0-6.11,0c-1.97,0-4.01,0-6.11,0
		c-14.2,0-21.3,19.85-21.3,19.85"/>
	<path class="st6" d="M15.49,74.96c0,0,25.68-44.43,8.68-44.43c-4.47,0-4.73,5.26-9.47,5.26c-8.81,0-0.21-20.85,9.72-20.85
		c11.57,0,12.63,9.68,12.63,9.68"/>
	<path class="st6" d="M86.61,74.96c0,0-3.94-7.1-8.15-14.2c-4.21-7.1-1.01-9.81-5.23-21.31c-3.68-10.02-30.4-6.56-30.4-6.56v10.17
		c0,2.78,2.26,5.04,5.04,5.04h10.4c2.79,0,5.05-2.27,5.04-5.07l-0.05-9.49"/>
	<path class="st6" d="M73.23,39.45c0,0,12.46-0.73,12.46,8.4v4.41c0,1.61-1.31,2.92-2.92,2.92h0c-1.52,0-2.79-1.16-2.91-2.67
		c-0.28-3.47,0.82-8.79-5.28-8.79"/>
	<path class="st6" d="M52.96,43.42h3.85c0.92,0,1.67-0.75,1.67-1.67v-4.17"/>
</g>
</svg>
