<svg xmlns="http://www.w3.org/2000/svg" viewBox="0 0 100 100" xmlns:v="https://vecta.io/nano"><style><![CDATA[.H{stroke-linecap:round}.I{stroke-miterlimit:10}]]></style><g fill="none" stroke="#fb3" stroke-width="3" class="I"><path d="M55.06 10.83s2.35 1.31 3.05 2.89c0 0 1.17-1.52 3.58-1.82" class="H"/><path d="M31.16 88.73l3.18-2.44 1.07-6.08c.47-2.54 1.53-3.48 1.53-3.48s4.98 6.47 10.91 8.38m-8.7-.13s-2.4 1.5-5.69 1.98"/><path d="M48.11 90.71s-1.96 2.01-6.6 2.55c-1.25.15-2.35-.85-2.35-2.11v-6.01a2.12 2.12 0 0 1 2.12-2.12h2.46m-6.43-5.82c-.09-.11.09-6.47-.19-8.93"/><path d="M51.57 73.86a20.7 20.7 0 0 0-3.15 0l-1.76.13c-2.03.14-3.9-1.03-4.88-2.15s-5.62-2.6-6.96-7.66-1.8-6.46-2.16-12.26-1.24-9.86-1.68-12.78 0-9.67 0-9.67.14-8.49 4.64-13.56 7.44-7.18 11.36-7.18 8.07 2.11 8.07 2.11 5.07-1.44 8.87 3 4.56 11.11 5.07 15.64c0 0 .43 6.75 0 9.67s-1.32 6.99-1.68 12.78-.82 7.2-2.16 12.26-5.98 6.53-6.96 7.66c-.98 1.12-2.85 2.3-4.88 2.15l-1.74-.14z"/><path d="M32.67 51.92s-1.17.6-1.73-1.92-2.15-6.52-2.38-8.82c-.22-2.3-.4-3.69.7-3.69s1.63.68 1.63.68"/><path d="M42.55 87.3s2.15-.38 4.87 0m-2.95 1.43h2.95" class="H"/><path d="M51.29 84.98H50h-1.29c-.71 0-1.29.58-1.29 1.29v3.31c0 .71.58 1.29 1.29 1.29H50h1.29c.71 0 1.29-.58 1.29-1.29v-3.31c0-.72-.58-1.29-1.29-1.29zm17.55 3.75l-3.18-2.44-1.07-6.08c-.47-2.54-1.53-3.48-1.53-3.48s-4.98 6.47-10.91 8.38m8.7-.13s2.4 1.5 5.69 1.98"/><path d="M51.89 90.71s1.96 2.01 6.6 2.55c1.25.15 2.35-.85 2.35-2.11v-6.01a2.12 2.12 0 0 0-2.12-2.12h-2.46m6.43-5.82c.09-.11-.09-6.47.19-8.93m4.45-16.35s1.17.6 1.73-1.92 2.15-6.52 2.38-8.82.4-3.69-.7-3.69-1.63.68-1.63.68"/><path d="M57.45 87.3s-2.15-.38-4.87 0m2.95 1.43h-2.95m-8.91-28.48s3.64-.46 6.4-.46m-3.47 3s1.25.29 3.4.29" class="H"/></g><path d="M57.37 57.51c-2.11 0-2.49-3.21-4.98-3.21-2.26 0-2.38.91-2.39 1.09 0-.17-.13-1.09-2.39-1.09-2.49 0-2.87 3.21-4.98 3.21s-2.36-.8-2.36-.8.37 1.79 3.06 1.79c2.7 0 3.8-1.61 5.23-1.61s1.44.45 1.44.45 0-.45 1.43-.45 2.54 1.61 5.23 1.61c2.7 0 3.06-1.79 3.06-1.79s-.25.8-2.35.8z" fill="#fb3"/><path d="M56.33 60.25s-3.64-.46-6.4-.46m3.47 3s-1.25.29-3.4.29M30.8 32.27s.74-1.12 1.65-1.7m-1.19-3.95s5.24-4.84 16.3-2.54m-15.41-1.53s.76-2.94 7.75-2.94 9.43 1.47 9.43 1.47m-12.13-6.9s5.71-.35 10.26 1.38 7.73 4.84 7.73 4.84M41.63 10.34s3.41-.38 7.79 2.35 6.87 4.98 6.87 7.71m1.1-2.49s1.82-1.46 4.6-1.46 4.54 1.67 4.54 1.67m-8.87 3.09h5.1s1.99-.31 5.38 2.25m-2.63 4.72h3.35m-1.46 4.47s1.29-.84 1.7-1.46" fill="none" stroke="#fb3" stroke-width="3" class="H I"/></svg>