<svg xmlns="http://www.w3.org/2000/svg" viewBox="0 0 100 100" xmlns:v="https://vecta.io/nano"><style><![CDATA[.B{stroke-miterlimit:10}.C{stroke-linecap:round}]]></style><g fill="none" stroke="#fb3" stroke-width="3"><path d="M10.48,51.33C11.42,72.35,28.75,89.1,50,89.1s38.58-16.75,39.52-37.77" class="B C"/><circle cx="27.04" cy="13.34" r="2.63"/><circle cx="44.71" cy="17.43" r="2.63"/><g class="B C"><path d="M25.37 51.33s-4.93-5.11-9.67-13.1l-4.12-7.37c-1.14-2.26-.53-5.07 1.55-6.51 1.49-1.04 3.78-1.87 7.31-1.87 9.29 0 17.95 10.96 10.29 28.85m.64-22.21s2.04-3.48 6.16-3.48 12.54 3.64 12.69 12.16m9.81 13.53c.58-1.23.91-2.6.91-4.05 0-5.23-4.24-9.48-9.48-9.48s-9.48 4.24-9.48 9.48c0 1.45.33 2.82.91 4.05"/><path d="M60.17 43.54s7.95 3.92 8.38 0-2.88-9.24 1.01-13.69c2.97-3.4 8.76-3.4 11.39.34 2.4 3.4 1.54 9.19-1.35 13.09-.49.66-.26 1.6.5 1.92.83.34 2.09.7 3.96.89 3.29.33 4.75 3.28 5.25 4.6.12.31-.12.65-.45.65H10.67s-1.24-4.53 2.42-6.35c4.14-2.06 5.32-2.49 5.32-2.49"/></g><path d="M55.24 28.37c-.55-.09-.96-.56-.98-1.14-.1-2.3.08-8.18 4.23-10.67 4.05-2.43 9-2.29 11.01-2.11.56.05 1 .49 1.06 1.07.23 2.05.26 6.94-3.89 10.28-4.18 3.37-9.36 2.92-11.43 2.57z" class="B"/><path d="M54.43 27.79l7.99-6.8m-44.95 7.28s11.68 9.64 12.35 23.06m1.55 0s7.32-6.16 9.42-17.51m30.97 17.51s.54-5.2 3.44-13.12M20.21 66.55s5.55 9.7 14.94 13.21" class="C B"/></g></svg>