<svg xmlns="http://www.w3.org/2000/svg" viewBox="0 0 100 100" fill="none" stroke="#fb3" stroke-width="3" stroke-linecap="round" stroke-miterlimit="10" xmlns:v="https://vecta.io/nano"><path d="M3.79 77.86s10.75 8.68 46.26 8.68 46.16-8.68 46.16-8.68m-18.8-1.98s-7.1-19.85-21.3-19.85H50h-6.11c-14.2 0-21.3 19.85-21.3 19.85m-7.1-.92s25.68-44.43 8.68-44.43c-4.47 0-4.73 5.26-9.47 5.26-8.81 0-.21-20.85 9.72-20.85 11.57 0 12.63 9.68 12.63 9.68m49.56 50.34s-3.94-7.1-8.15-14.2-1.01-9.81-5.23-21.31c-3.68-10.02-30.4-6.56-30.4-6.56v10.17c0 2.78 2.26 5.04 5.04 5.04h10.4c2.79 0 5.05-2.27 5.04-5.07l-.05-9.49m9.97 5.91s12.46-.73 12.46 8.4v4.41c0 1.61-1.31 2.92-2.92 2.92h0c-1.52 0-2.79-1.16-2.91-2.67-.28-3.47.82-8.79-5.28-8.79"/><path d="M52.96 43.42h3.85c.92 0 1.67-.75 1.67-1.67v-4.17"/></svg>