<svg xmlns="http://www.w3.org/2000/svg" viewBox="0 0 300 80" fill-rule="evenodd" xmlns:v="https://vecta.io/nano"><path d="M27.8 39c1.8-1.3 2.9-3.5 2.9-5.7 0-3-2.2-6.1-6.6-9.4-2.2-1.5-4.1-3.3-5.7-5.4-1.1-1.4-1.7-3.1-1.8-4.9-.1-1.6.7-3.1 2-4 2.1-1.4 4.7-1.7 7.1-.8 1.1.5 1.6 1.2 1.6 2.1 0 .6-.2 1.1-.6 1.6-.3.4-.5.9-.6 1.4 0 .8.4 1.2 1.3 1.2 1.1 0 1.7-1 1.7-3 .1-1.4-.6-2.8-1.8-3.6s-2.6-1.2-4-1.1c-2.1 0-4.2.6-6 1.8-2 1.4-3 3.1-3 5.2a9.06 9.06 0 0 0 2 5.2 20.96 20.96 0 0 0 4.7 4.7c1.8 1.2 3.4 2.5 5 4 1.7 1.8 2.6 3.6 2.6 5.6.1 1.8-.7 3.4-2.1 4.5s-3.2 1.7-5 1.7-3.5-.5-5-1.5a4.3 4.3 0 0 1-1.9-2.1c-.3-.9-.4-1.9-.4-2.8h-.4v5.2c2.5 1.4 5.3 2.1 8.1 2.2 2 .2 4.2-.6 5.9-2.1zm18.8-9.2H54c.4 2.3 1 4.6 1.9 6.9 1.2 2.5 3 3.9 5.2 4.2-2.8-1.2-4.8-6.2-5.9-15.1A131.84 131.84 0 0 1 54.3 8h1.3v-.6H44.2V8c.5-.1 1.1.2 1.2.8.1.5.1 1 .1 1.6.1 5.5-.2 10.9-.8 16.3-1 7.2-3 12-6.1 14.2 3.8 0 6.4-3.7 8-11.1zm1.1-10.1c.2-4.2.3-7.9.3-11.2v-.2-.2h4.6c-.1 1.4-.1 3.9 0 7.6 0 4.4.4 8.8 1.1 13.2h-7c.6-3 .9-6.1 1-9.2zm25.9 20.2h-1.3V12.2l4.9 8.5c3.2 5.9 6.5 12.5 9.7 19.8h.7V8h1.3v-.6h-3.7V8c.3-.1.6 0 .9.2.3.1.4.4.4.7v24.7c-2.3-7.2-6.8-16-13.5-26.1h-3V8c.9-.1 1.3.2 1.3.9V39c0 .6-.4.9-1.2.9H70v.6h3.6v-.6zm27.3-30.1c.2-1.1.7-1.7 1.5-1.7h4.4c.9 0 1.3.3 1.3.8v30c0 .6-.4.9-1.3.9v.6h5.2v-.6h-1.3V8.1h5.6c.5-.1 1 .2 1.1.7s.2 1 .2 1.5l.1 1.5h.6l-.3-5.2h-.6v.9h-16.1l.1-.9h-.6l-.7 5.2h.6l.2-2zm40.5-3.2c-1.2 0-2.5.2-3.6.7-3.1 1.2-5.5 3.6-7 7.2-1.3 3.2-2 6.7-1.9 10.1 0 2.8.4 5.6 1.4 8.2 2.2 5.9 5.4 8.8 9.9 8.8 1.3 0 2.6-.3 3.8-.8 3.1-1.2 5.3-3.6 6.9-7.1 1.3-3.2 2-6.6 1.9-10 0-2.8-.5-5.7-1.4-8.4-2.3-5.8-5.6-8.7-10-8.7zm7.3 26.7c-1.2 3.5-3 5.7-5.4 6.7-.8.3-1.6.5-2.4.5-3.3 0-6-2.9-8.1-8.6-.9-2.6-1.4-5.3-1.3-8 0-3 .4-6.1 1.3-9 1.2-3.6 3.1-5.8 5.5-6.7.7-.3 1.5-.4 2.3-.4 3.3 0 6 2.9 8.1 8.6.9 2.6 1.4 5.3 1.3 8.1 0 3-.4 6-1.3 8.8z" fill="#0d0d0d"/><path d="M163.8 49.1c-.4-.2-.9-.3-1.4 0l-5.6 4.3c-1 .7-1.4 2-.9 3.1.4 1.2-.1 2-1.1 2.6l-5.4 3.3-5.7-3.9c-1-.7-1.3-1.4-.9-2.5.5-1.1.2-2.5-.8-3.3l-5.4-4.5a1.36 1.36 0 0 0-1.5 0c-1.9 1.4-3.3 3.3-4.2 5.5-.1.5 0 1 .4 1.3l5.8 4c1 .7 2.3.7 3.3-.1s1.9-.6 2.8.2l4.8 4-2.3 1.4h0l-6.9 4.3c-1 .6-2 1.3-2.9 2.1a1.25 1.25 0 0 0-.3 1.6c.3.6 1.1.8 1.7.5a22.63 22.63 0 0 0 2-1.3l10-7.5 2.1 1.7h0l6.3 5.2c.9.8 1.9 1.5 2.9 2.2 0 0 .1.1.2.1.5.3 1.2.1 1.5-.4l.1-.1c.4-.5.2-1.2-.3-1.6l-1.9-1.5-9.6-6.6 4.7-3.6c.9-.7 1.7-.8 2.6-.1.9.9 2.3 1 3.4.3l5.9-3.7c.4-.4.6-.9.5-1.4-.7-2.1-2.1-4.1-3.9-5.6zm-31.5 5.3c1.2-.2 4.6 2.3 4.7 3.4-1.6-.9-3.2-2.1-4.7-3.4zm5 2.1l-2-1.5c-.6-.5-1.3-.9-1.9-1.4-.1-.1-.1-.4-.2-.7.2 0 .5-.1.6 0l3.9 2.9c.2.1.2.4.2.6-.1.1-.4.2-.6.1zm-3.4-4.9c1 .1 4.8 2.9 5 3.8-.8 0-4.6-2.7-5-3.8zm1.1-1.2l5.1 3.8c-1.3 0-4.9-2.7-5.1-3.8zm.9-.6c1.1-.2 4.4 2.3 4.6 3.5l-4.6-3.5zm1.6 22.1c-.2.1-.4 0-.6-.1-.1-.2-.1-.4 0-.6l1.6-.9c.1.1.2.3.3.4-.3.4-.8.8-1.3 1.2zm21.7-1.4c.5.3 1.1.6 1.6 1 .1.2.1.4.1.6-.2.1-.4.2-.6.1-.5-.4-.9-.8-1.4-1.3l.3-.4zm-1.3-16.9c1.5-1.3 3-2.4 4.7-3.4-.2 1.2-3.6 3.6-4.7 3.4zm.9 1.4c.1-.2.1-.5.2-.6l2-1.4a22.63 22.63 0 0 1 2-1.3c.2-.1.4 0 .7 0-.1.2-.1.5-.2.6l-4 2.7c-.1.1-.4 0-.7 0zm.9 1.2c.2-.8 4-3.5 5.1-3.6-.4 1-4.3 3.6-5.1 3.6zm5.9-2.1l-5.2 3.6c.3-1.2 4.1-3.8 5.2-3.6zm-4.4 4.3l4.7-3.3c-.1 1.1-3.6 3.5-4.7 3.3zm14.3-51.1c1.2 0 2.3.5 3.1 1.3 1 .9 1.5 1.3 1.7 1.3.6 0 1-.3 1-1s-.9-1.3-2.6-1.8c-1.2-.4-2.4-.5-3.6-.6-3.6 0-6.3 2-8.4 6-1.7 3.3-2.5 7-2.5 10.7-.1 3.8.6 7.5 2 11 1.8 4.4 4.4 6.6 7.9 6.6 1.3-.1 2.6-.4 3.8-1 1.2-.5 2.3-1.2 3.3-2l-.4-.5c-.8.7-1.7 1.3-2.6 1.6-.9.4-2 .7-3 .7-3 0-5.1-2.2-6.4-6.5-.9-3.3-1.4-6.8-1.3-10.2-.1-3.3.4-6.6 1.4-9.8 1.2-3.8 3.5-5.8 6.6-5.8zM204 38.2l-1.7-7.9c-.7-3-1.5-4.9-2.4-5.4l-.8-.3c.3-.1.6-.1.8-.1 3.9-1.3 5.9-4.7 5.9-10.1 0-1.7-.3-3.3-.9-4.9-.8-2-1.9-3-3.3-3-1 0-2.1.6-3.2 1.7a9.45 9.45 0 0 0-2.1 3.1c-.3.8-.5 1.4-.6 1.8.1-1.2.1-3.2 0-6.1-1.1.9-2.4 1.5-3.9 1.7v.6c.9 0 1.3.3 1.3 1V39c0 .6-.4.9-1.3.9v.6h5.4v-.6h-1.6V16.1c0-1.2.5-2.8 1.4-4.9 1-2.3 2-3.5 3-3.5.5 0 1.1.4 1.6 1.3 1.1 1.8 1.6 4.2 1.6 7.2 0 1.1-.1 2.2-.4 3.3-.3 1.5-1.1 2.7-2.3 3.6-1.3.7-2.7 1.2-4.1 1.4.8.3 1.6 1.5 2.2 3.4.7 2.1 1.2 4.2 1.5 6.3.4 2.1.9 4.2 1.6 6.2.8 2 1.9 3 3.5 3 2.1 0 4-1.2 5.7-3.7-1.6 1.7-3 2.5-4 2.5-1.1 0-2.1-1.3-2.9-4zm26.8-.1c-.2 1.1-.7 1.7-1.6 1.7h-8.6l.1-.8V22.9h6.6v2.8h.6V19h-.6c0 .7 0 1.3-.1 2-.2.8-.6 1.2-1.3 1.2h-5.2l-.1-14h8.3c.5-.1 1 .2 1.2.7.1.5.1 1 .1 1.5l.1 1.5h.6l-.3-5.2h-.6v.9h-13.3V8c.9 0 1.3.3 1.3.8v30.3c0 .6-.4.9-1.3.9v.6h13.6l-.1.9h.6l.7-5.2h-.6l-.1 1.8zM255 9.4c-.8-2-1.9-3-3.3-3-1.3 0-2.6.8-3.9 2.4-1 1.3-1.8 2.7-2.2 4.3l.1-1.8V6.9c-1.1.9-2.4 1.5-3.9 1.7v.6c.9 0 1.3.3 1.3 1V39c0 .6-.4.9-1.3.9v.6h5.9v-.6h-2V25.7l4.7-1.4s2.8-1.6 3.7-3c1.2-2.1 1.8-4.5 1.7-6.9 0-1.8-.3-3.4-.8-5zm-2.2 11.1c-.5 1.4-1.5 2.6-2.9 3.2-.4.2-1.8.5-4.2 1v-.6V16c0-1.1.5-2.7 1.5-4.8 1.1-2.4 2.1-3.5 3-3.5.8 0 1.6 1 2.3 3 .6 1.8.9 3.7.9 5.6.1 1.4-.1 2.8-.6 4.2zm27 15.6l-.2 2c-.2 1.1-.7 1.7-1.6 1.7h-8.6l.1-.8V22.9h6.6v2.8h.6V19h-.7c0 .7 0 1.3-.1 2-.2.8-.6 1.2-1.3 1.2h-5.2l-.1-14h8.3c.5-.1 1 .2 1.2.7.1.5.1 1 .1 1.5l.1 1.5h.6l-.3-5.2h-.6v.9h-13.3V8c.9 0 1.3.3 1.3.8v30.3c0 .6-.4.9-1.3.9v.6H279l-.1.9h.6l.7-5.2-.4-.2z" fill="#fb3"/><path d="M8.5 60h118.7v1.2H8.5zm-4.1 3.1h118.7v1.2H4.4zM173.7 60h118.7v1.2H173.7zm6.2 3.1h118.7v1.2H179.9z" fill="#0d0d0d"/></svg>