<?xml version="1.0" encoding="utf-8"?>
<!-- Generator: Adobe Illustrator 26.3.1, SVG Export Plug-In . SVG Version: 6.00 Build 0)  -->
<svg version="1.1" id="Camada_1" xmlns="http://www.w3.org/2000/svg" xmlns:xlink="http://www.w3.org/1999/xlink" x="0px" y="0px"
	 viewBox="0 0 300 80" style="enable-background:new 0 0 300 80;" xml:space="preserve">
<style type="text/css">
	.st0{fill-rule:evenodd;clip-rule:evenodd;fill:#0D0D0D;}
	.st1{fill-rule:evenodd;clip-rule:evenodd;fill:#FFBB33;}
</style>
<path class="st0" d="M27.8,39c1.8-1.3,2.9-3.5,2.9-5.7c0-3-2.2-6.1-6.6-9.4c-2.2-1.5-4.1-3.3-5.7-5.4c-1.1-1.4-1.7-3.1-1.8-4.9
	c-0.1-1.6,0.7-3.1,2-4c2.1-1.4,4.7-1.7,7.1-0.8c1.1,0.5,1.6,1.2,1.6,2.1c0,0.6-0.2,1.1-0.6,1.6c-0.3,0.4-0.5,0.9-0.6,1.4
	c0,0.8,0.4,1.2,1.3,1.2c1.1,0,1.7-1,1.7-3c0.1-1.4-0.6-2.8-1.8-3.6c-1.2-0.8-2.6-1.2-4-1.1c-2.1,0-4.2,0.6-6,1.8c-2,1.4-3,3.1-3,5.2
	c0.1,1.9,0.8,3.7,2,5.2c1.3,1.8,2.9,3.4,4.7,4.7c1.8,1.2,3.4,2.5,5,4c1.7,1.8,2.6,3.6,2.6,5.6c0.1,1.8-0.7,3.4-2.1,4.5
	c-1.4,1.1-3.2,1.7-5,1.7c-1.8,0-3.5-0.5-5-1.5c-0.9-0.5-1.5-1.2-1.9-2.1c-0.3-0.9-0.4-1.9-0.4-2.8h-0.4v5.2c2.5,1.4,5.3,2.1,8.1,2.2
	C23.9,41.3,26.1,40.5,27.8,39z"/>
<path class="st0" d="M46.6,29.8h7.4c0.4,2.3,1,4.6,1.9,6.9c1.2,2.5,3,3.9,5.2,4.2c-2.8-1.2-4.8-6.2-5.9-15.1
	c-0.7-5.9-1-11.8-0.9-17.8h1.3V7.4H44.2V8c0,0,0,0,0,0c0.5-0.1,1.1,0.2,1.2,0.8c0.1,0.5,0.1,1,0.1,1.6c0.1,5.5-0.2,10.9-0.8,16.3
	c-1,7.2-3,12-6.1,14.2C42.4,40.9,45,37.2,46.6,29.8z M47.7,19.7c0.2-4.2,0.3-7.9,0.3-11.2c0-0.1,0-0.1,0-0.2V8.1h4.6
	c-0.1,1.4-0.1,3.9,0,7.6c0,4.4,0.4,8.8,1.1,13.2h-7C47.3,25.9,47.6,22.8,47.7,19.7z"/>
<path class="st0" d="M73.6,39.9h-1.3c0-17.9,0-27.1,0-27.7c2.2,3.8,3.8,6.6,4.9,8.5c3.2,5.9,6.5,12.5,9.7,19.8h0.7V8h1.3V7.4h-3.7V8
	c0.3-0.1,0.6,0,0.9,0.2c0.3,0.1,0.4,0.4,0.4,0.7c0,15.7,0,23.9,0,24.7c-2.3-7.2-6.8-16-13.5-26.1h-3V8c0.9-0.1,1.3,0.2,1.3,0.9V39
	c0,0.6-0.4,0.9-1.2,0.9H70v0.6h3.6V39.9z"/>
<path class="st0" d="M100.9,9.8c0.2-1.1,0.7-1.7,1.5-1.7h4.4c0.9,0,1.3,0.3,1.3,0.8v30c0,0.6-0.4,0.9-1.3,0.9v0.6h5.2v-0.6h-1.3
	c0-20.8,0-31.4,0-31.7h5.6c0.5-0.1,1,0.2,1.1,0.7c0.1,0.5,0.2,1,0.2,1.5l0.1,1.5h0.6l-0.3-5.2h-0.6l0,0.9h-16.1l0.1-0.9h-0.6
	l-0.7,5.2h0.6L100.9,9.8z"/>
<path class="st0" d="M141.4,6.6c-1.2,0-2.5,0.2-3.6,0.7c-3.1,1.2-5.5,3.6-7,7.2c-1.3,3.2-2,6.7-1.9,10.1c0,2.8,0.4,5.6,1.4,8.2
	c2.2,5.9,5.4,8.8,9.9,8.8c1.3,0,2.6-0.3,3.8-0.8c3.1-1.2,5.3-3.6,6.9-7.1c1.3-3.2,2-6.6,1.9-10c0-2.8-0.5-5.7-1.4-8.4
	C149.1,9.5,145.8,6.6,141.4,6.6z M148.7,33.3c-1.2,3.5-3,5.7-5.4,6.7c-0.8,0.3-1.6,0.5-2.4,0.5c-3.3,0-6-2.9-8.1-8.6
	c-0.9-2.6-1.4-5.3-1.3-8c0-3,0.4-6.1,1.3-9c1.2-3.6,3.1-5.8,5.5-6.7c0.7-0.3,1.5-0.4,2.3-0.4c3.3,0,6,2.9,8.1,8.6
	c0.9,2.6,1.4,5.3,1.3,8.1C150,27.5,149.6,30.5,148.7,33.3z"/>
<path class="st1" d="M163.8,49.1c-0.4-0.2-0.9-0.3-1.4,0c-1.9,1.4-3.8,2.8-5.6,4.3c-1,0.7-1.4,2-0.9,3.1c0.4,1.2-0.1,2-1.1,2.6
	c-1.8,1.1-3.6,2.2-5.4,3.3c-1.9-1.3-3.8-2.6-5.7-3.9c-1-0.7-1.3-1.4-0.9-2.5c0.5-1.1,0.2-2.5-0.8-3.3c-1.8-1.5-3.5-3-5.4-4.5
	c-0.5-0.3-1-0.3-1.5,0c-1.9,1.4-3.3,3.3-4.2,5.5c-0.1,0.5,0,1,0.4,1.3c1.9,1.4,3.9,2.7,5.8,4c1,0.7,2.3,0.7,3.3-0.1
	c1-0.8,1.9-0.6,2.8,0.2c1.6,1.4,3.2,2.7,4.8,4c-0.8,0.5-1.6,1-2.3,1.4l0,0c-2.3,1.4-4.6,2.9-6.9,4.3c-1,0.6-2,1.3-2.9,2.1
	c-0.5,0.4-0.6,1.1-0.3,1.6c0.3,0.6,1.1,0.8,1.7,0.5c0.7-0.4,1.3-0.8,2-1.3c3.3-2.5,6.7-5,10-7.5c0.7,0.6,1.4,1.2,2.1,1.7l0,0
	c2.1,1.7,4.2,3.5,6.3,5.2c0.9,0.8,1.9,1.5,2.9,2.2c0,0,0.1,0.1,0.2,0.1c0.5,0.3,1.2,0.1,1.5-0.4c0,0,0.1-0.1,0.1-0.1
	c0.4-0.5,0.2-1.2-0.3-1.6c-0.6-0.5-1.2-1-1.9-1.5c-3.2-2.2-6.4-4.4-9.6-6.6c1.6-1.2,3.1-2.4,4.7-3.6c0.9-0.7,1.7-0.8,2.6-0.1
	c0.9,0.9,2.3,1,3.4,0.3c2-1.2,4-2.4,5.9-3.7c0.4-0.4,0.6-0.9,0.5-1.4C167,52.6,165.6,50.6,163.8,49.1z M132.3,54.4
	c1.2-0.2,4.6,2.3,4.7,3.4C135.4,56.9,133.8,55.7,132.3,54.4z M137.3,56.5c-0.7-0.5-1.3-1-2-1.5c-0.6-0.5-1.3-0.9-1.9-1.4
	c-0.1-0.1-0.1-0.4-0.2-0.7c0.2,0,0.5-0.1,0.6,0c1.3,1,2.6,1.9,3.9,2.9c0.2,0.1,0.2,0.4,0.2,0.6C137.8,56.5,137.5,56.6,137.3,56.5z
	 M133.9,51.6c1,0.1,4.8,2.9,5,3.8C138.1,55.4,134.3,52.7,133.9,51.6z M135,50.4c1.7,1.3,3.3,2.5,5.1,3.8
	C138.8,54.2,135.2,51.5,135,50.4z M135.9,49.8c1.1-0.2,4.4,2.3,4.6,3.5L135.9,49.8z M137.5,71.9c-0.2,0.1-0.4,0-0.6-0.1
	c-0.1-0.2-0.1-0.4,0-0.6c0.5-0.3,1.1-0.6,1.6-0.9c0.1,0.1,0.2,0.3,0.3,0.4C138.5,71.1,138,71.5,137.5,71.9z M159.2,70.5
	c0.5,0.3,1.1,0.6,1.6,1c0.1,0.2,0.1,0.4,0.1,0.6c-0.2,0.1-0.4,0.2-0.6,0.1c-0.5-0.4-0.9-0.8-1.4-1.3L159.2,70.5z M157.9,53.6
	c1.5-1.3,3-2.4,4.7-3.4C162.4,51.4,159,53.8,157.9,53.6z M158.8,55c0.1-0.2,0.1-0.5,0.2-0.6c0.7-0.5,1.4-1,2-1.4
	c0.7-0.5,1.3-0.9,2-1.3c0.2-0.1,0.4,0,0.7,0c-0.1,0.2-0.1,0.5-0.2,0.6c-1.3,0.9-2.6,1.9-4,2.7C159.4,55.1,159.1,55,158.8,55z
	 M159.7,56.2c0.2-0.8,4-3.5,5.1-3.6C164.4,53.6,160.5,56.2,159.7,56.2z M165.6,54.1l-5.2,3.6C160.7,56.5,164.5,53.9,165.6,54.1z
	 M161.2,58.4l4.7-3.3C165.8,56.2,162.3,58.6,161.2,58.4z"/>
<path class="st1" d="M175.5,7.3c1.2,0,2.3,0.5,3.1,1.3c1,0.9,1.5,1.3,1.7,1.3c0.6,0,1-0.3,1-1c0-0.7-0.9-1.3-2.6-1.8
	c-1.2-0.4-2.4-0.5-3.6-0.6c-3.6,0-6.3,2-8.4,6c-1.7,3.3-2.5,7-2.5,10.7c-0.1,3.8,0.6,7.5,2,11c1.8,4.4,4.4,6.6,7.9,6.6
	c1.3-0.1,2.6-0.4,3.8-1c1.2-0.5,2.3-1.2,3.3-2l-0.4-0.5c-0.8,0.7-1.7,1.3-2.6,1.6c-0.9,0.4-2,0.7-3,0.7c-3,0-5.1-2.2-6.4-6.5
	c-0.9-3.3-1.4-6.8-1.3-10.2c-0.1-3.3,0.4-6.6,1.4-9.8C170.1,9.3,172.4,7.3,175.5,7.3z"/>
<path class="st1" d="M204,38.2c-0.6-2.6-1.1-5.3-1.7-7.9c-0.7-3-1.5-4.9-2.4-5.4c-0.3-0.1-0.6-0.2-0.8-0.3c0.3-0.1,0.6-0.1,0.8-0.1
	c3.9-1.3,5.9-4.7,5.9-10.1c0-1.7-0.3-3.3-0.9-4.9c-0.8-2-1.9-3-3.3-3c-1,0-2.1,0.6-3.2,1.7c-0.9,0.9-1.6,1.9-2.1,3.1
	c-0.3,0.8-0.5,1.4-0.6,1.8c0.1-1.2,0.1-3.2,0-6.1c-1.1,0.9-2.4,1.5-3.9,1.7v0.6c0.9,0,1.3,0.3,1.3,1V39c0,0.6-0.4,0.9-1.3,0.9v0.6
	h5.4v-0.6h-1.6V16.1c0-1.2,0.5-2.8,1.4-4.9c1-2.3,2-3.5,3-3.5c0.5,0,1.1,0.4,1.6,1.3c1.1,1.8,1.6,4.2,1.6,7.2c0,1.1-0.1,2.2-0.4,3.3
	c-0.3,1.5-1.1,2.7-2.3,3.6c-1.3,0.7-2.7,1.2-4.1,1.4c0.8,0.3,1.6,1.5,2.2,3.4c0.7,2.1,1.2,4.2,1.5,6.3c0.4,2.1,0.9,4.2,1.6,6.2
	c0.8,2,1.9,3,3.5,3c2.1,0,4-1.2,5.7-3.7c-1.6,1.7-3,2.5-4,2.5C205.8,42.2,204.8,40.9,204,38.2z"/>
<path class="st1" d="M230.8,38.1c-0.2,1.1-0.7,1.7-1.6,1.7h-8.6l0.1-0.8V22.9h6.6v2.8h0.6V19h-0.6c0,0.7,0,1.3-0.1,2
	c-0.2,0.8-0.6,1.2-1.3,1.2h-5.2c0-9.2,0-13.9-0.1-14h8.3c0.5-0.1,1,0.2,1.2,0.7c0.1,0.5,0.1,1,0.1,1.5l0.1,1.5h0.6l-0.3-5.2H230
	l0,0.9h-13.3V8c0.9,0,1.3,0.3,1.3,0.8v30.3c0,0.6-0.4,0.9-1.3,0.9v0.6h13.6l-0.1,0.9h0.6l0.7-5.2l-0.6,0L230.8,38.1z"/>
<path class="st1" d="M255,9.4c-0.8-2-1.9-3-3.3-3c-1.3,0-2.6,0.8-3.9,2.4c-1,1.3-1.8,2.7-2.2,4.3c0.1-1.2,0.1-1.8,0.1-1.8V6.9
	c-1.1,0.9-2.4,1.5-3.9,1.7v0.6c0.9,0,1.3,0.3,1.3,1V39c0,0.6-0.4,0.9-1.3,0.9v0.6h5.9v-0.6h-2c0-9,0-13.7,0-14.2
	c1.6-0.4,3.2-0.8,4.7-1.4c1.5-0.6,2.8-1.6,3.7-3c1.2-2.1,1.8-4.5,1.7-6.9C255.8,12.6,255.5,11,255,9.4z M252.8,20.5
	c-0.5,1.4-1.5,2.6-2.9,3.2c-0.4,0.2-1.8,0.5-4.2,1c0-0.4,0-0.6,0-0.6v-8.1c0-1.1,0.5-2.7,1.5-4.8c1.1-2.4,2.1-3.5,3-3.5
	c0.8,0,1.6,1,2.3,3c0.6,1.8,0.9,3.7,0.9,5.6C253.5,17.7,253.3,19.1,252.8,20.5z"/>
<path class="st1" d="M279.8,36.1l-0.2,2c-0.2,1.1-0.7,1.7-1.6,1.7h-8.6l0.1-0.8V22.9h6.6v2.8h0.6V19H276c0,0.7,0,1.3-0.1,2
	c-0.2,0.8-0.6,1.2-1.3,1.2h-5.2c0-9.2,0-13.9-0.1-14h8.3c0.5-0.1,1,0.2,1.2,0.7c0.1,0.5,0.1,1,0.1,1.5l0.1,1.5h0.6l-0.3-5.2h-0.6
	l0,0.9h-13.3V8c0.9,0,1.3,0.3,1.3,0.8v30.3c0,0.6-0.4,0.9-1.3,0.9v0.6h13.6l-0.1,0.9h0.6l0.7-5.2L279.8,36.1z"/>
<rect x="8.5" y="60" class="st0" width="118.7" height="1.2"/>
<rect x="4.4" y="63.1" class="st0" width="118.7" height="1.2"/>
<rect x="173.7" y="60" class="st0" width="118.7" height="1.2"/>
<rect x="179.9" y="63.1" class="st0" width="118.7" height="1.2"/>
</svg>
