<?xml version="1.0" encoding="utf-8"?>
<!-- Generator: Adobe Illustrator 25.4.6, SVG Export Plug-In . SVG Version: 6.00 Build 0)  -->
<svg version="1.1" id="Camada_1" xmlns="http://www.w3.org/2000/svg" xmlns:xlink="http://www.w3.org/1999/xlink" x="0px" y="0px"
	 viewBox="0 0 30 30" style="enable-background:new 0 0 30 30;" xml:space="preserve">
<style type="text/css">
	.st0{fill:#1D1D1D;}
	.st1{fill-rule:evenodd;clip-rule:evenodd;fill:#1D1D1D;}
</style>
<g>
	<g>
		<path class="st0" d="M24.7,5.2c-2.6-2.6-6-4-9.7-4C7.5,1.2,1.4,7.3,1.4,14.9c0,2.4,0.6,4.8,1.8,6.8l-1.9,7.1l7.2-1.9
			c2,1.1,4.2,1.7,6.5,1.7l0,0c7.5,0,13.7-6.1,13.7-13.7C28.7,11.2,27.3,7.8,24.7,5.2z M15.1,26.2L15.1,26.2c-2,0-4-0.5-5.8-1.6
			l-0.4-0.2l-4.3,1.1l1.1-4.2l-0.3-0.4c-1.1-1.8-1.7-3.9-1.7-6c0-6.3,5.1-11.3,11.4-11.3c3,0,5.9,1.2,8,3.3s3.3,5,3.3,8
			C26.4,21.1,21.3,26.2,15.1,26.2z"/>
		<path class="st1" d="M11.6,9.2c-0.3-0.6-0.5-0.6-0.8-0.6h-0.7C10,8.6,9.6,8.7,9.3,9s-1.2,1.2-1.2,2.8s1.2,3.3,1.4,3.5
			s2.4,3.8,5.8,5.2c2.9,1.1,3.5,0.9,4.1,0.9c0.6-0.1,2-0.8,2.3-1.6c0.3-0.8,0.3-1.5,0.2-1.6c-0.1-0.1-0.3-0.2-0.7-0.4
			c-0.3-0.2-2-1-2.3-1.1s-0.5-0.2-0.8,0.2c-0.2,0.3-0.9,1.1-1.1,1.3c-0.2,0.2-0.4,0.3-0.7,0.1c-0.3-0.2-1.4-0.5-2.7-1.7
			c-1-0.9-1.7-2-1.9-2.4c-0.2-0.3,0-0.5,0.1-0.7c0.2-0.2,0.3-0.4,0.5-0.6c0.2-0.2,0.2-0.3,0.3-0.6c0.1-0.2,0.1-0.4,0-0.6
			S11.9,9.8,11.6,9.2"/>
	</g>
</g>
</svg>
